# Blender 3.5.1
# www.blender.org
mtllib enviornmentFinalCeilings2.mtl
o Cube.007
v -16.599792 7.488910 5.000000
v -16.599792 7.888910 5.000000
v -16.599792 7.488910 -5.000000
v -16.599792 7.888910 -5.000000
v -4.996741 7.488910 5.000000
v -4.996741 7.888910 5.000000
v -4.996741 7.488910 -5.000000
v -4.996741 7.888910 -5.000000
vn -1.0000 -0.0000 -0.0000
vn -0.0000 -0.0000 -1.0000
vn 1.0000 -0.0000 -0.0000
vn -0.0000 -0.0000 1.0000
vn -0.0000 -1.0000 -0.0000
vn -0.0000 1.0000 -0.0000
vt -3.959935 1.614984
vt 4.959935 1.614984
vt 2.729968 3.844951
vt -3.959935 -0.614984
vt 4.959935 -0.614984
vt 2.729967 -2.844951
vt -1.729967 1.614984
vt 0.500000 3.844951
vt -1.729967 -0.614984
vt 0.500000 -2.844951
vt 2.729968 1.614984
vt 2.729967 -0.614984
vt 0.500000 1.614984
vt 0.500000 -0.614984
s 0
usemtl Material.011
f 1/1/1 2/4/1 4/9/1 3/7/1
f 3/7/2 4/9/2 8/14/2 7/13/2
f 7/13/3 8/14/3 6/12/3 5/11/3
f 5/11/4 6/12/4 2/5/4 1/2/4
f 3/8/5 7/13/5 5/11/5 1/3/5
f 8/14/6 4/10/6 2/6/6 6/12/6
o Cube.023
v -70.380943 7.488910 5.000000
v -70.380943 7.888910 5.000000
v -70.380943 7.488910 -5.000000
v -70.380943 7.888910 -5.000000
v -40.477280 7.488910 5.000000
v -40.477280 7.888910 5.000000
v -40.477280 7.488910 -5.000000
v -40.477280 7.888910 -5.000000
vn -1.0000 -0.0000 -0.0000
vn -0.0000 -0.0000 -1.0000
vn 1.0000 -0.0000 -0.0000
vn -0.0000 -0.0000 1.0000
vn -0.0000 -1.0000 -0.0000
vn -0.0000 1.0000 -0.0000
vt -3.959935 3.004008
vt 4.959935 3.004006
vt 2.729968 8.012020
vt -3.959935 -2.004006
vt 4.959935 -2.004007
vt 2.729967 -7.012021
vt -1.729967 3.004007
vt 0.500000 8.012020
vt -1.729968 -2.004006
vt 0.500000 -7.012021
vt 2.729968 3.004006
vt 2.729967 -2.004007
vt 0.500000 3.004007
vt 0.500000 -2.004006
s 0
usemtl Material.011
f 9/15/7 10/18/7 12/23/7 11/21/7
f 11/21/8 12/23/8 16/28/8 15/27/8
f 15/27/9 16/28/9 14/26/9 13/25/9
f 13/25/10 14/26/10 10/19/10 9/16/10
f 11/22/11 15/27/11 13/25/11 9/17/11
f 16/28/12 12/24/12 10/20/12 14/26/12
o Cube.024
v -61.663956 7.517888 -4.697424
v -61.663956 7.859932 -4.697424
v -70.215088 7.517888 -4.697424
v -70.215088 7.859932 -4.697424
v -61.663956 7.517888 -25.862249
v -61.663956 7.859932 -25.862249
v -70.215088 7.517888 -25.862249
v -70.215088 7.859932 -25.862249
vn -0.0000 -0.0000 1.0000
vn -1.0000 -0.0000 -0.0000
vn -0.0000 -0.0000 -1.0000
vn 1.0000 -0.0000 -0.0000
vn -0.0000 -1.0000 -0.0000
vn -0.0000 1.0000 -0.0000
vt -3.959935 3.004008
vt 4.959935 3.004006
vt 2.729968 8.012020
vt -3.959935 -2.004006
vt 4.959935 -2.004007
vt 2.729967 -7.012021
vt -1.729967 3.004007
vt 0.500000 8.012020
vt -1.729968 -2.004006
vt 0.500000 -7.012021
vt 2.729968 3.004006
vt 2.729967 -2.004007
vt 0.500000 3.004007
vt 0.500000 -2.004006
s 0
usemtl Material.032
f 17/29/13 18/32/13 20/37/13 19/35/13
f 19/35/14 20/37/14 24/42/14 23/41/14
f 23/41/15 24/42/15 22/40/15 21/39/15
f 21/39/16 22/40/16 18/33/16 17/30/16
f 19/36/17 23/41/17 21/39/17 17/31/17
f 24/42/18 20/38/18 18/34/18 22/40/18
o Cube.058
v 11.613051 27.190388 -51.354111
v 11.613051 27.562187 -51.354111
v 2.318100 27.190388 -51.354111
v 2.318100 27.562187 -51.354111
v 11.613050 27.190388 -79.189316
v 11.613050 27.562187 -79.189316
v 2.318099 27.190388 -79.189316
v 2.318099 27.562187 -79.189316
vn -0.0000 -0.0000 1.0000
vn -1.0000 -0.0000 -0.0000
vn -0.0000 -0.0000 -1.0000
vn 1.0000 -0.0000 -0.0000
vn -0.0000 -1.0000 -0.0000
vn -0.0000 1.0000 -0.0000
vt -3.959935 3.004008
vt 4.959935 3.004006
vt 2.729968 8.012020
vt -3.959935 -2.004006
vt 4.959935 -2.004007
vt 2.729967 -7.012021
vt -1.729967 3.004007
vt 0.500000 8.012020
vt -1.729968 -2.004006
vt 0.500000 -7.012021
vt 2.729968 3.004006
vt 2.729967 -2.004007
vt 0.500000 3.004007
vt 0.500000 -2.004006
s 0
usemtl Material.072
f 25/43/19 26/46/19 28/51/19 27/49/19
f 27/49/20 28/51/20 32/56/20 31/55/20
f 31/55/21 32/56/21 30/54/21 29/53/21
f 29/53/22 30/54/22 26/47/22 25/44/22
f 27/50/23 31/55/23 29/53/23 25/45/23
f 32/56/24 28/52/24 26/48/24 30/54/24
o Cube.048
v -62.393818 20.563875 -82.314529
v -62.393818 20.935675 -82.314529
v -62.393818 20.563875 -91.609482
v -62.393818 20.935675 -91.609482
v -39.387966 20.563875 -82.314529
v -39.387966 20.935675 -82.314529
v -39.387966 20.563875 -91.609482
v -39.387966 20.935675 -91.609482
vn -1.0000 -0.0000 -0.0000
vn -0.0000 -0.0000 -1.0000
vn 1.0000 -0.0000 -0.0000
vn -0.0000 -0.0000 1.0000
vn -0.0000 -1.0000 -0.0000
vn -0.0000 1.0000 -0.0000
vt -3.959935 3.004008
vt 4.959935 3.004006
vt 2.729968 8.012020
vt -3.959935 -2.004006
vt 4.959935 -2.004007
vt 2.729967 -7.012021
vt -1.729967 3.004007
vt 0.500000 8.012020
vt -1.729968 -2.004006
vt 0.500000 -7.012021
vt 2.729968 3.004006
vt 2.729967 -2.004007
vt 0.500000 3.004007
vt 0.500000 -2.004006
s 0
usemtl Material.062
f 33/57/25 34/60/25 36/65/25 35/63/25
f 35/63/26 36/65/26 40/70/26 39/69/26
f 39/69/27 40/70/27 38/68/27 37/67/27
f 37/67/28 38/68/28 34/61/28 33/58/28
f 35/64/29 39/69/29 37/67/29 33/59/29
f 40/70/30 36/66/30 34/62/30 38/68/30
o Cube.049
v -72.016418 20.549774 -91.403435
v -72.016418 20.949776 -91.403435
v -62.016418 20.549774 -91.403435
v -62.016418 20.949776 -91.403435
v -72.016418 20.549774 -61.499763
v -72.016418 20.949776 -61.499763
v -62.016418 20.549774 -61.499763
v -62.016418 20.949776 -61.499763
vn -0.0000 -0.0000 -1.0000
vn 1.0000 -0.0000 -0.0000
vn -0.0000 -0.0000 1.0000
vn -1.0000 -0.0000 -0.0000
vn -0.0000 -1.0000 -0.0000
vn -0.0000 1.0000 -0.0000
vt -3.959935 3.004008
vt 4.959935 3.004006
vt 2.729968 8.012020
vt -3.959935 -2.004006
vt 4.959935 -2.004007
vt 2.729967 -7.012021
vt -1.729967 3.004007
vt 0.500000 8.012020
vt -1.729968 -2.004006
vt 0.500000 -7.012021
vt 2.729968 3.004006
vt 2.729967 -2.004007
vt 0.500000 3.004007
vt 0.500000 -2.004006
s 0
usemtl Material.063
f 41/71/31 42/74/31 44/79/31 43/77/31
f 43/77/32 44/79/32 48/84/32 47/83/32
f 47/83/33 48/84/33 46/82/33 45/81/33
f 45/81/34 46/82/34 42/75/34 41/72/34
f 43/78/35 47/83/35 45/81/35 41/73/35
f 48/84/36 44/80/36 42/76/36 46/82/36
o Cube.125
v 11.613051 20.237059 17.408792
v 11.613051 20.608858 17.408792
v 2.318100 20.237059 17.408792
v 2.318100 20.608858 17.408792
v 11.613050 20.237059 -10.426416
v 11.613050 20.608858 -10.426416
v 2.318099 20.237059 -10.426416
v 2.318099 20.608858 -10.426416
vn -0.0000 -0.0000 1.0000
vn -1.0000 -0.0000 -0.0000
vn -0.0000 -0.0000 -1.0000
vn 1.0000 -0.0000 -0.0000
vn -0.0000 -1.0000 -0.0000
vn -0.0000 1.0000 -0.0000
vt -3.959935 3.004008
vt 4.959935 3.004006
vt 2.729968 8.012020
vt -3.959935 -2.004006
vt 4.959935 -2.004007
vt 2.729967 -7.012021
vt -1.729967 3.004007
vt 0.500000 8.012020
vt -1.729968 -2.004006
vt 0.500000 -7.012021
vt 2.729968 3.004006
vt 2.729967 -2.004007
vt 0.500000 3.004007
vt 0.500000 -2.004006
s 0
usemtl Material.165
f 49/85/37 50/88/37 52/93/37 51/91/37
f 51/91/38 52/93/38 56/98/38 55/97/38
f 55/97/39 56/98/39 54/96/39 53/95/39
f 53/95/40 54/96/40 50/89/40 49/86/40
f 51/92/41 55/97/41 53/95/41 49/87/41
f 56/98/42 52/94/42 50/90/42 54/96/42
o Cube.126
v 30.127811 20.453644 11.848043
v 30.127811 20.825443 11.848043
v 30.127815 20.453644 21.142994
v 30.127815 20.825443 21.142994
v 2.292603 20.453644 11.848053
v 2.292603 20.825443 11.848053
v 2.292606 20.453644 21.143003
v 2.292606 20.825443 21.143003
vn 1.0000 -0.0000 -0.0000
vn -0.0000 -0.0000 1.0000
vn -1.0000 -0.0000 -0.0000
vn -0.0000 -0.0000 -1.0000
vn -0.0000 -1.0000 -0.0000
vn -0.0000 1.0000 -0.0000
vt -3.959935 3.004008
vt 4.959935 3.004006
vt 2.729968 8.012020
vt -3.959935 -2.004006
vt 4.959935 -2.004007
vt 2.729967 -7.012021
vt -1.729967 3.004007
vt 0.500000 8.012020
vt -1.729968 -2.004006
vt 0.500000 -7.012021
vt 2.729968 3.004006
vt 2.729967 -2.004007
vt 0.500000 3.004007
vt 0.500000 -2.004006
s 0
usemtl Material.166
f 57/99/43 58/102/43 60/107/43 59/105/43
f 59/105/44 60/107/44 64/112/44 63/111/44
f 63/111/45 64/112/45 62/110/45 61/109/45
f 61/109/46 62/110/46 58/103/46 57/100/46
f 59/106/47 63/111/47 61/109/47 57/101/47
f 64/112/48 60/108/48 58/104/48 62/110/48
o Cube.128
v 52.135918 7.517888 -7.712704
v 52.135918 7.859932 -7.712704
v 43.584789 7.517888 -7.712704
v 43.584789 7.859932 -7.712704
v 52.135914 7.517888 -73.254700
v 52.135914 7.859932 -73.254700
v 43.584785 7.517888 -73.254700
v 43.584785 7.859932 -73.254700
vn -0.0000 -0.0000 1.0000
vn -1.0000 -0.0000 -0.0000
vn -0.0000 -0.0000 -1.0000
vn 1.0000 -0.0000 -0.0000
vn -0.0000 -1.0000 -0.0000
vn -0.0000 1.0000 -0.0000
vt -3.959935 3.004008
vt 4.959935 3.004006
vt 2.729968 8.012020
vt -3.959935 -2.004006
vt 4.959935 -2.004007
vt 2.729967 -7.012021
vt -1.729967 3.004007
vt 0.500000 8.012020
vt -1.729968 -2.004006
vt 0.500000 -7.012021
vt 2.729968 3.004006
vt 2.729967 -2.004007
vt 0.500000 3.004007
vt 0.500000 -2.004006
s 0
usemtl Material.168
f 65/113/49 66/116/49 68/121/49 67/119/49
f 67/119/50 68/121/50 72/126/50 71/125/50
f 71/125/51 72/126/51 70/124/51 69/123/51
f 69/123/52 70/124/52 66/117/52 65/114/52
f 67/120/53 71/125/53 69/123/53 65/115/53
f 72/126/54 68/122/54 66/118/54 70/124/54
o Cube.129
v 52.015327 7.517888 -141.069290
v 52.015327 7.859932 -141.069290
v 43.464195 7.517888 -141.069290
v 43.464195 7.859932 -141.069290
v 52.015327 7.517888 -171.693100
v 52.015327 7.859932 -171.693100
v 43.464195 7.517888 -171.693100
v 43.464195 7.859932 -171.693100
vn -0.0000 -0.0000 1.0000
vn -1.0000 -0.0000 -0.0000
vn -0.0000 -0.0000 -1.0000
vn 1.0000 -0.0000 -0.0000
vn -0.0000 -1.0000 -0.0000
vn -0.0000 1.0000 -0.0000
vt -3.959935 3.004008
vt 4.959935 3.004006
vt 2.729968 8.012020
vt -3.959935 -2.004006
vt 4.959935 -2.004007
vt 2.729967 -7.012021
vt -1.729967 3.004007
vt 0.500000 8.012020
vt -1.729968 -2.004006
vt 0.500000 -7.012021
vt 2.729968 3.004006
vt 2.729967 -2.004007
vt 0.500000 3.004007
vt 0.500000 -2.004006
s 0
usemtl Material.171
f 73/127/55 74/130/55 76/135/55 75/133/55
f 75/133/56 76/135/56 80/140/56 79/139/56
f 79/139/57 80/140/57 78/138/57 77/137/57
f 77/137/58 78/138/58 74/131/58 73/128/58
f 75/134/59 79/139/59 77/137/59 73/129/59
f 80/140/60 76/136/60 74/132/60 78/138/60
