# Blender v2.92.0 OBJ File: 'untitled.blend'
# www.blender.org
mtllib ramp.mtl
o Cube
v 1.000000 -1.000000 -1.000000
v 1.000000 -1.000000 1.000000
v -1.000000 1.000000 -1.000000
v -1.000000 -1.000000 -1.000000
v -1.000000 1.000000 1.000000
v -1.000000 -1.000000 1.000000
vt 0.375000 0.250000
vt 0.625000 0.250000
vt 0.375000 0.500000
vt 0.375000 0.000000
vt 0.625000 0.000000
vt 0.125000 0.500000
vt 0.375000 0.750000
vt 0.125000 0.750000
vn 0.0000 0.0000 -1.0000
vn -1.0000 0.0000 0.0000
vn 0.0000 -1.0000 0.0000
vn 0.0000 0.0000 1.0000
vn 0.7071 0.7071 0.0000
usemtl Material
s off
f 4/1/1 3/2/1 1/3/1
f 6/4/2 5/5/2 3/2/2 4/1/2
f 4/6/3 1/3/3 2/7/3 6/8/3
f 5/5/4 6/4/4 2/7/4
f 5/5/5 2/7/5 1/3/5 3/2/5
