# Blender v2.92.0 OBJ File: 'arena2.blend'
# www.blender.org
mtllib arena2.mtl
o obj_0
v 30.000000 20.000000 -30.000000
v 70.000000 0.000000 -30.000000
v 30.000000 0.000000 -30.000000
v 70.000000 0.000000 30.000000
v 30.000000 20.000000 30.000000
v 30.000000 0.000000 30.000000
v -30.000000 20.000000 30.000000
v -70.000000 0.000000 30.000000
v -30.000000 0.000000 30.000000
v -30.000000 0.000000 -30.000000
v -70.000000 0.000000 -30.000000
v -30.000000 0.000000 70.000000
v 30.000000 0.000000 70.000000
v -30.000000 20.000000 -30.000000
v 30.000000 0.000000 -70.000000
v -30.000000 0.000000 -70.000000
v 100.000000 100.000000 -80.000000
v 100.000000 0.000000 -80.000000
v 100.000000 0.000000 -100.000000
v 100.000000 100.000000 -100.000000
v 80.000000 80.000000 -80.000000
v -80.000000 80.000000 -80.000000
v -80.000000 80.000000 -100.000000
v 80.000000 0.000000 -100.000000
v 80.000000 80.000000 -100.000000
v -80.000000 0.000000 -80.000000
v -100.000000 0.000000 -80.000000
v -100.000000 100.000000 -80.000000
v -80.000000 0.000000 -100.000000
v -100.000000 0.000000 -100.000000
v -100.000000 100.000000 -100.000000
v 80.000000 0.000000 -80.000000
vn 0.3567 0.8634 -0.3567
vn 0.8188 -0.1933 -0.5405
vn 0.3015 -0.9045 -0.3015
vn 0.8188 -0.1933 0.5405
vn 0.3567 0.8634 0.3567
vn 0.3015 -0.9045 0.3015
vn -0.3567 0.8634 0.3567
vn -0.8188 -0.1933 0.5405
vn -0.3015 -0.9045 0.3015
vn -0.3015 -0.9045 -0.3015
vn -0.8188 -0.1933 -0.5405
vn -0.5405 -0.1933 0.8188
vn 0.5405 -0.1933 0.8188
vn -0.3567 0.8634 -0.3567
vn 0.5405 -0.1933 -0.8188
vn -0.5405 -0.1933 -0.8188
vn 0.5773 0.5773 0.5773
vn 0.5773 -0.5773 0.5773
vn 0.5773 -0.5773 -0.5773
vn 0.5773 0.5773 -0.5773
vn -0.3015 -0.3015 0.9045
vn 0.3015 -0.3015 0.9045
vn 0.3015 -0.3015 -0.9045
vn -0.5773 -0.5773 -0.5773
vn -0.3015 -0.3015 -0.9045
vn -0.5773 -0.5773 0.5773
vn -0.5773 0.5773 0.5773
vn -0.5773 0.5773 -0.5773
usemtl color_3888547
s 1
f 1//1 2//2 3//3
f 4//4 5//5 6//6
f 7//7 8//8 9//9
f 2//2 4//4 6//6
f 2//2 6//6 3//3
f 1//1 5//5 4//4
f 1//1 4//4 2//2
f 10//10 9//9 8//8
f 10//10 8//8 11//11
f 5//5 7//7 12//12
f 5//5 12//12 13//13
f 5//5 13//13 6//6
f 7//7 14//14 11//11
f 7//7 11//11 8//8
f 15//15 1//1 3//3
f 16//16 14//14 1//1
f 16//16 1//1 15//15
f 12//12 7//7 9//9
f 14//14 16//16 10//10
f 10//10 11//11 14//14
f 13//13 12//12 9//9
f 13//13 9//9 6//6
f 3//3 10//10 16//16
f 3//3 16//16 15//15
usemtl color_15277357
f 17//17 18//18 19//19
f 17//17 19//19 20//20
f 21//21 22//22 23//23
f 24//24 25//25 19//19
f 20//20 19//19 25//25
f 17//17 22//22 21//21
f 26//18 22//22 27//26
f 28//27 27//26 22//22
f 28//27 22//22 17//17
f 29//19 30//24 23//23
f 30//24 31//28 23//23
f 25//25 24//24 32//26
f 25//25 32//26 21//21
f 18//18 32//26 24//24
f 18//18 24//24 19//19
f 29//19 23//23 22//22
f 29//19 22//22 26//18
f 32//26 18//18 21//21
f 17//17 21//21 18//18
f 31//28 30//24 27//26
f 31//28 27//26 28//27
f 20//20 31//28 17//17
f 31//28 28//27 17//17
f 21//21 23//23 25//25
f 26//18 27//26 30//24
f 26//18 30//24 29//19
f 20//20 25//25 23//23
f 20//20 23//23 31//28
f 1//1 14//14 7//7
f 1//1 7//7 5//5
f 6//6 9//9 10//10
f 6//6 10//10 3//3
