# Blender 3.5.1
# www.blender.org
mtllib door.mtl
o Cube
v 0.100000 2.000000 -1.000000
v 0.100000 0.000000 -1.000000
v 0.100000 2.000000 1.000000
v 0.100000 0.000000 1.000000
v -0.100000 2.000000 -1.000000
v -0.100000 0.000000 -1.000000
v -0.100000 2.000000 1.000000
v -0.100000 0.000000 1.000000
vn -0.0000 1.0000 -0.0000
vn -0.0000 -0.0000 1.0000
vn -1.0000 -0.0000 -0.0000
vn -0.0000 -1.0000 -0.0000
vn 1.0000 -0.0000 -0.0000
vn -0.0000 -0.0000 -1.0000
vt 1.003113 0.998282
vt 1.003112 0.006610
vt -0.003441 0.998282
vt -0.003441 0.006610
vt 1.003113 1.989953
vt 2.009665 0.998282
vt 1.003112 -0.985062
vt 2.009665 0.006610
vt -0.003441 1.989953
vt -1.009993 0.998283
vt 3.016218 0.998282
vt -1.009992 0.006610
vt 3.016218 0.006610
vt -0.003441 -0.985062
s 0
usemtl Material
f 1/1/1 5/5/1 7/9/1 3/3/1
f 4/4/2 3/3/2 7/10/2 8/12/2
f 8/13/3 7/11/3 5/6/3 6/8/3
f 6/7/4 2/2/4 4/4/4 8/14/4
f 2/2/5 1/1/5 3/3/5 4/4/5
f 6/8/6 5/6/6 1/1/6 2/2/6
