# Blender 3.5.1
# www.blender.org
mtllib enviornmentFinalCeilings1.mtl
o Cube.005
v -5.000000 7.488910 5.000000
v -5.000000 7.888910 5.000000
v -5.000000 7.488910 -5.000000
v -5.000000 7.888910 -5.000000
v 5.000000 7.488910 5.000000
v 5.000000 7.888910 5.000000
v 5.000000 7.488910 -5.000000
v 5.000000 7.888910 -5.000000
vn -1.0000 -0.0000 -0.0000
vn -0.0000 -0.0000 -1.0000
vn 1.0000 -0.0000 -0.0000
vn -0.0000 -0.0000 1.0000
vn -0.0000 -1.0000 -0.0000
vn -0.0000 1.0000 -0.0000
vt -0.614984 -3.959935
vt -0.614984 4.959935
vt -2.844951 2.729967
vt 1.614984 -3.959935
vt 1.614984 4.959935
vt 3.844951 2.729967
vt -0.614984 -1.729967
vt -2.844951 0.500000
vt 1.614984 -1.729967
vt 3.844951 0.500000
vt -0.614984 2.729967
vt 1.614984 2.729967
vt -0.614984 0.500000
vt 1.614984 0.500000
s 0
usemtl Material.003
f 1/1/1 2/4/1 4/9/1 3/7/1
f 3/7/2 4/9/2 8/14/2 7/13/2
f 7/13/3 8/14/3 6/12/3 5/11/3
f 5/11/4 6/12/4 2/5/4 1/2/4
f 3/8/5 7/13/5 5/11/5 1/3/5
f 8/14/6 4/10/6 2/6/6 6/12/6
o Cube.018
v -40.845760 7.271291 10.440482
v -40.845760 8.106529 10.440482
v -40.845760 7.271291 -10.440482
v -40.845760 8.106529 -10.440482
v -16.617474 7.271291 10.440482
v -16.617474 8.106529 10.440482
v -16.617474 7.271291 -10.440482
v -16.617474 8.106529 -10.440482
vn -1.0000 -0.0000 -0.0000
vn -0.0000 -0.0000 -1.0000
vn 1.0000 -0.0000 -0.0000
vn -0.0000 -0.0000 1.0000
vn -0.0000 -1.0000 -0.0000
vn -0.0000 1.0000 -0.0000
vt -0.614984 -3.959935
vt -0.614984 4.959935
vt -2.844951 2.729967
vt 1.614984 -3.959935
vt 1.614984 4.959935
vt 3.844951 2.729967
vt -0.614984 -1.729967
vt -2.844951 0.500000
vt 1.614984 -1.729967
vt 3.844951 0.500000
vt -0.614984 2.729967
vt 1.614984 2.729967
vt -0.614984 0.500000
vt 1.614984 0.500000
s 0
usemtl Material.023
f 9/15/7 10/18/7 12/23/7 11/21/7
f 11/21/8 12/23/8 16/28/8 15/27/8
f 15/27/9 16/28/9 14/26/9 13/25/9
f 13/25/10 14/26/10 10/19/10 9/16/10
f 11/22/11 15/27/11 13/25/11 9/17/11
f 16/28/12 12/24/12 10/20/12 14/26/12
o Cube.033
v -78.948372 7.271291 -25.078766
v -78.948372 8.106529 -25.078766
v -78.948372 7.271291 -61.729240
v -78.948372 8.106529 -61.729240
v -54.720085 7.271291 -25.078766
v -54.720085 8.106529 -25.078766
v -54.720085 7.271291 -61.729240
v -54.720085 8.106529 -61.729240
vn -1.0000 -0.0000 -0.0000
vn -0.0000 -0.0000 -1.0000
vn 1.0000 -0.0000 -0.0000
vn -0.0000 -0.0000 1.0000
vn -0.0000 -1.0000 -0.0000
vn -0.0000 1.0000 -0.0000
vt -0.815172 -6.879762
vt -0.815172 7.879762
vt -3.445516 4.189881
vt 1.815172 -6.879762
vt 1.815172 7.879762
vt 4.445516 4.189881
vt -0.815172 -3.189881
vt -3.445516 0.500000
vt 1.815172 -3.189881
vt 4.445516 0.500000
vt -0.815172 4.189881
vt 1.815172 4.189881
vt -0.815172 0.500000
vt 1.815172 0.500000
s 0
usemtl Material.041
f 17/29/13 18/32/13 20/37/13 19/35/13
f 19/35/14 20/37/14 24/42/14 23/41/14
f 23/41/15 24/42/15 22/40/15 21/39/15
f 21/39/16 22/40/16 18/33/16 17/30/16
f 19/36/17 23/41/17 21/39/17 17/31/17
f 24/42/18 20/38/18 18/34/18 22/40/18
o Cube.054
v -40.845760 26.407696 -77.946884
v -40.845760 27.242935 -77.946884
v -40.845760 26.407696 -98.827850
v -40.845760 27.242935 -98.827850
v -16.617474 26.407696 -77.946884
v -16.617474 27.242935 -77.946884
v -16.617474 26.407696 -98.827850
v -16.617474 27.242935 -98.827850
vn -1.0000 -0.0000 -0.0000
vn -0.0000 -0.0000 -1.0000
vn 1.0000 -0.0000 -0.0000
vn -0.0000 -0.0000 1.0000
vn -0.0000 -1.0000 -0.0000
vn -0.0000 1.0000 -0.0000
vt -0.614984 -3.959935
vt -0.614984 4.959935
vt -2.844951 2.729967
vt 1.614984 -3.959935
vt 1.614984 4.959935
vt 3.844951 2.729967
vt -0.614984 -1.729967
vt -2.844951 0.500000
vt 1.614984 -1.729967
vt 3.844951 0.500000
vt -0.614984 2.729967
vt 1.614984 2.729967
vt -0.614984 0.500000
vt 1.614984 0.500000
s 0
usemtl Material.067
f 25/43/19 26/46/19 28/51/19 27/49/19
f 27/49/20 28/51/20 32/56/20 31/55/20
f 31/55/21 32/56/21 30/54/21 29/53/21
f 29/53/22 30/54/22 26/47/22 25/44/22
f 27/50/23 31/55/23 29/53/23 25/45/23
f 32/56/24 28/52/24 26/48/24 30/54/24
o Cube.055
v -17.454262 26.407696 -77.946884
v -17.454262 27.242935 -77.946884
v -17.454262 26.407696 -98.827850
v -17.454262 27.242935 -98.827850
v 10.134105 26.407696 -77.946884
v 10.134105 27.242935 -77.946884
v 10.134105 26.407696 -98.827850
v 10.134105 27.242935 -98.827850
vn -1.0000 -0.0000 -0.0000
vn -0.0000 -0.0000 -1.0000
vn 1.0000 -0.0000 -0.0000
vn -0.0000 -0.0000 1.0000
vn -0.0000 -1.0000 -0.0000
vn -0.0000 1.0000 -0.0000
vt -0.614984 -3.959935
vt -0.614984 4.959935
vt -2.844951 2.729967
vt 1.614984 -3.959935
vt 1.614984 4.959935
vt 3.844951 2.729967
vt -0.614984 -1.729967
vt -2.844951 0.500000
vt 1.614984 -1.729967
vt 3.844951 0.500000
vt -0.614984 2.729967
vt 1.614984 2.729967
vt -0.614984 0.500000
vt 1.614984 0.500000
s 0
usemtl Material.068
f 33/57/25 34/60/25 36/65/25 35/63/25
f 35/63/26 36/65/26 40/70/26 39/69/26
f 39/69/27 40/70/27 38/68/27 37/67/27
f 37/67/28 38/68/28 34/61/28 33/58/28
f 35/64/29 39/69/29 37/67/29 33/59/29
f 40/70/30 36/66/30 34/62/30 38/68/30
o Cube.127
v -18.381374 21.049347 2.871895
v -18.381374 21.884586 2.871895
v -18.381374 21.049347 -50.972095
v -18.381374 21.884586 -50.972095
v 34.855656 21.049347 2.871895
v 34.855656 21.884586 2.871895
v 34.855656 21.049347 -50.972095
v 34.855656 21.884586 -50.972095
vn -1.0000 -0.0000 -0.0000
vn -0.0000 -0.0000 -1.0000
vn 1.0000 -0.0000 -0.0000
vn -0.0000 -0.0000 1.0000
vn -0.0000 -1.0000 -0.0000
vn -0.0000 1.0000 -0.0000
vt -0.801414 -4.947106
vt -0.801414 5.947106
vt -3.404243 3.223553
vt 1.801414 -4.947106
vt 1.801414 5.947106
vt 4.404243 3.223553
vt -0.801414 -2.223553
vt -3.404243 0.500000
vt 1.801414 -2.223553
vt 4.404243 0.500000
vt -0.801414 3.223553
vt 1.801414 3.223553
vt -0.801414 0.500000
vt 1.801414 0.500000
s 0
usemtl Material.167
f 41/71/31 42/74/31 44/79/31 43/77/31
f 43/77/32 44/79/32 48/84/32 47/83/32
f 47/83/33 48/84/33 46/82/33 45/81/33
f 45/81/34 46/82/34 42/75/34 41/72/34
f 43/78/35 47/83/35 45/81/35 41/73/35
f 48/84/36 44/80/36 42/76/36 46/82/36
o Cube.130
v 29.351946 21.989313 22.958675
v 29.351946 22.824553 22.958675
v 29.351946 21.989313 -14.647045
v 29.351946 22.824553 -14.647045
v 66.533760 21.989313 22.958675
v 66.533760 22.824553 22.958675
v 66.533760 21.989313 -14.647045
v 66.533760 22.824553 -14.647045
vn -1.0000 -0.0000 -0.0000
vn -0.0000 -0.0000 -1.0000
vn 1.0000 -0.0000 -0.0000
vn -0.0000 -0.0000 1.0000
vn -0.0000 -1.0000 -0.0000
vn -0.0000 1.0000 -0.0000
vt -0.614984 -3.959935
vt -0.614984 4.959935
vt -2.844951 2.729967
vt 1.614984 -3.959935
vt 1.614984 4.959935
vt 3.844951 2.729967
vt -0.614984 -1.729967
vt -2.844951 0.500000
vt 1.614984 -1.729967
vt 3.844951 0.500000
vt -0.614984 2.729967
vt 1.614984 2.729967
vt -0.614984 0.500000
vt 1.614984 0.500000
s 0
usemtl Material.172
f 49/85/37 50/88/37 52/93/37 51/91/37
f 51/91/38 52/93/38 56/98/38 55/97/38
f 55/97/39 56/98/39 54/96/39 53/95/39
f 53/95/40 54/96/40 50/89/40 49/86/40
f 51/92/41 55/97/41 53/95/41 49/87/41
f 56/98/42 52/94/42 50/90/42 54/96/42
o Cube.131
v 9.701023 21.989313 -63.801178
v 9.701023 22.824553 -63.801178
v 9.701023 21.989313 -152.089157
v 9.701023 22.824553 -152.089157
v 96.993774 21.989313 -63.801178
v 96.993774 22.824553 -63.801178
v 96.993774 21.989313 -152.089157
v 96.993774 22.824553 -152.089157
vn -1.0000 -0.0000 -0.0000
vn -0.0000 -0.0000 -1.0000
vn 1.0000 -0.0000 -0.0000
vn -0.0000 -0.0000 1.0000
vn -0.0000 -1.0000 -0.0000
vn -0.0000 1.0000 -0.0000
vt -0.948770 -5.428932
vt -0.948770 6.428932
vt -3.846310 3.464466
vt 1.948770 -5.428932
vt 1.948770 6.428932
vt 4.846310 3.464466
vt -0.948770 -2.464466
vt -3.846310 0.500000
vt 1.948770 -2.464466
vt 4.846310 0.500000
vt -0.948770 3.464466
vt 1.948770 3.464466
vt -0.948770 0.500000
vt 1.948770 0.500000
s 0
usemtl Material.173
f 57/99/43 58/102/43 60/107/43 59/105/43
f 59/105/44 60/107/44 64/112/44 63/111/44
f 63/111/45 64/112/45 62/110/45 61/109/45
f 61/109/46 62/110/46 58/103/46 57/100/46
f 59/106/47 63/111/47 61/109/47 57/101/47
f 64/112/48 60/108/48 58/104/48 62/110/48
o Cube.132
v 35.117992 7.271290 -171.412018
v 35.117992 8.106529 -171.412018
v 35.117992 7.271290 -195.700806
v 35.117992 8.106529 -195.700806
v 60.339260 7.271290 -171.412018
v 60.339260 8.106529 -171.412018
v 60.339260 7.271290 -195.700806
v 60.339260 8.106529 -195.700806
vn -1.0000 -0.0000 -0.0000
vn -0.0000 -0.0000 -1.0000
vn 1.0000 -0.0000 -0.0000
vn -0.0000 -0.0000 1.0000
vn -0.0000 -1.0000 -0.0000
vn -0.0000 1.0000 -0.0000
vt -0.614984 -3.959935
vt -0.614984 4.959935
vt -2.844951 2.729967
vt 1.614984 -3.959935
vt 1.614984 4.959935
vt 3.844951 2.729967
vt -0.614984 -1.729967
vt -2.844951 0.500000
vt 1.614984 -1.729967
vt 3.844951 0.500000
vt -0.614984 2.729967
vt 1.614984 2.729967
vt -0.614984 0.500000
vt 1.614984 0.500000
s 0
usemtl Material.174
f 65/113/49 66/116/49 68/121/49 67/119/49
f 67/119/50 68/121/50 72/126/50 71/125/50
f 71/125/51 72/126/51 70/124/51 69/123/51
f 69/123/52 70/124/52 66/117/52 65/114/52
f 67/120/53 71/125/53 69/123/53 65/115/53
f 72/126/54 68/122/54 66/118/54 70/124/54
o Cube.136
v -19.752228 21.989313 -50.379715
v -19.752228 22.824553 -50.379715
v -19.752228 21.989313 -62.637367
v -19.752228 22.824553 -62.637367
v 2.685408 21.989313 -50.379715
v 2.685408 22.824553 -50.379715
v 2.685408 21.989313 -62.637367
v 2.685408 22.824553 -62.637367
vn -1.0000 -0.0000 -0.0000
vn -0.0000 -0.0000 -1.0000
vn 1.0000 -0.0000 -0.0000
vn -0.0000 -0.0000 1.0000
vn -0.0000 -1.0000 -0.0000
vn -0.0000 1.0000 -0.0000
vt -0.801414 -4.947106
vt -0.801414 5.947106
vt -3.404243 3.223553
vt 1.801414 -4.947106
vt 1.801414 5.947106
vt 4.404243 3.223553
vt -0.801414 -2.223553
vt -3.404243 0.500000
vt 1.801414 -2.223553
vt 4.404243 0.500000
vt -0.801414 3.223553
vt 1.801414 3.223553
vt -0.801414 0.500000
vt 1.801414 0.500000
s 0
usemtl Material.215
f 73/127/55 74/130/55 76/135/55 75/133/55
f 75/133/56 76/135/56 80/140/56 79/139/56
f 79/139/57 80/140/57 78/138/57 77/137/57
f 77/137/58 78/138/58 74/131/58 73/128/58
f 75/134/59 79/139/59 77/137/59 73/129/59
f 80/140/60 76/136/60 74/132/60 78/138/60
o Cube.137
v 11.700696 21.989313 -50.379715
v 11.700696 22.824553 -50.379715
v 11.700696 21.989313 -62.637367
v 11.700696 22.824553 -62.637367
v 34.138332 21.989313 -50.379715
v 34.138332 22.824553 -50.379715
v 34.138332 21.989313 -62.637367
v 34.138332 22.824553 -62.637367
vn -1.0000 -0.0000 -0.0000
vn -0.0000 -0.0000 -1.0000
vn 1.0000 -0.0000 -0.0000
vn -0.0000 -0.0000 1.0000
vn -0.0000 -1.0000 -0.0000
vn -0.0000 1.0000 -0.0000
vt -0.801414 -4.947106
vt -0.801414 5.947106
vt -3.404243 3.223553
vt 1.801414 -4.947106
vt 1.801414 5.947106
vt 4.404243 3.223553
vt -0.801414 -2.223553
vt -3.404243 0.500000
vt 1.801414 -2.223553
vt 4.404243 0.500000
vt -0.801414 3.223553
vt 1.801414 3.223553
vt -0.801414 0.500000
vt 1.801414 0.500000
s 0
usemtl Material.216
f 81/141/61 82/144/61 84/149/61 83/147/61
f 83/147/62 84/149/62 88/154/62 87/153/62
f 87/153/63 88/154/63 86/152/63 85/151/63
f 85/151/64 86/152/64 82/145/64 81/142/64
f 83/148/65 87/153/65 85/151/65 81/143/65
f 88/154/66 84/150/66 82/146/66 86/152/66
