# Blender v2.92.0 OBJ File: ''
# www.blender.org
mtllib untitled.mtl
o Cube
v 1.000000 1.000000 -1.000000
v 1.000000 -1.000000 -1.000000
v 1.000000 1.000000 1.000000
v 1.000000 -1.000000 1.000000
v -1.000000 1.000000 -1.000000
v -1.000000 -1.000000 -1.000000
v -1.000000 1.000000 1.000000
v -1.000000 -1.000000 1.000000
vt 0.625000 0.500000
vt 0.875000 0.500000
vt 0.875000 0.750000
vt 0.625000 0.750000
vt 0.375000 0.750000
vt 0.625000 1.000000
vt 0.375000 1.000000
vt 0.375000 0.000000
vt 0.625000 0.000000
vt 0.625000 0.250000
vt 0.375000 0.250000
vt 0.125000 0.500000
vt 0.375000 0.500000
vt 0.125000 0.750000
vn 0.0000 1.0000 0.0000
vn 0.0000 0.0000 1.0000
vn -1.0000 0.0000 0.0000
vn 0.0000 -1.0000 0.0000
vn 1.0000 0.0000 0.0000
vn 0.0000 0.0000 -1.0000
usemtl Material
s off
f 1/1/1 5/2/1 7/3/1 3/4/1
f 4/5/2 3/4/2 7/6/2 8/7/2
f 8/8/3 7/9/3 5/10/3 6/11/3
f 6/12/4 2/13/4 4/5/4 8/14/4
f 2/13/5 1/1/5 3/4/5 4/5/5
f 6/11/6 5/10/6 1/1/6 2/13/6
o obj_0
v -30.000000 0.000000 70.000000
v -30.000000 20.000000 30.000000
v -30.000000 0.000000 30.000000
v -30.000000 20.000000 -30.000000
v -30.000000 0.000000 -70.000000
v -30.000000 0.000000 -30.000000
v 70.000000 0.000000 30.000000
v 30.000000 20.000000 30.000000
v 30.000000 0.000000 30.000000
v 70.000000 0.000000 -30.000000
v 30.000000 0.000000 -30.000000
v 30.000000 20.000000 -30.000000
v 30.000000 0.000000 70.000000
v 30.000000 0.000000 -70.000000
v -70.000000 0.000000 30.000000
v -70.000000 0.000000 -30.000000
v 100.000000 100.000000 -100.000000
v 100.000000 80.000000 80.000000
v 100.000000 80.000000 -80.000000
v 100.000000 0.000000 -80.000000
v 100.000000 0.000000 -100.000000
v 100.000000 0.000000 80.000000
v 100.000000 0.000000 100.000000
v 100.000000 100.000000 100.000000
v 80.000000 80.000000 80.000000
v 80.000000 0.000000 80.000000
v 80.000000 0.000000 100.000000
v 80.000000 80.000000 100.000000
v -80.000000 100.000000 80.000000
v -80.000000 80.000000 80.000000
v -80.000000 80.000000 -80.000000
v 80.000000 100.000000 80.000000
v -80.000000 0.000000 -80.000000
v -100.000000 0.000000 -80.000000
v -100.000000 0.000000 -100.000000
v -80.000000 0.000000 -100.000000
v -100.000000 100.000000 100.000000
v -80.000000 0.000000 100.000000
v -100.000000 0.000000 100.000000
v -100.000000 0.000000 80.000000
v -80.000000 0.000000 80.000000
v -80.000000 80.000000 100.000000
v -80.000000 100.000000 -80.000000
v -80.000000 80.000000 -100.000000
v -100.000000 80.000000 80.000000
v -100.000000 80.000000 -80.000000
v -100.000000 100.000000 -100.000000
v 80.000000 100.000000 -80.000000
v 80.000000 80.000000 -80.000000
v 80.000000 80.000000 -100.000000
v 80.000000 0.000000 -80.000000
v 80.000000 0.000000 -100.000000
vn -0.5405 -0.1933 0.8188
vn -0.3567 0.8634 0.3567
vn -0.3015 -0.9045 0.3015
vn -0.3567 0.8634 -0.3567
vn -0.5405 -0.1933 -0.8188
vn -0.3015 -0.9045 -0.3015
vn 0.8188 -0.1933 0.5405
vn 0.3567 0.8634 0.3567
vn 0.3015 -0.9045 0.3015
vn 0.8188 -0.1933 -0.5405
vn 0.3015 -0.9045 -0.3015
vn 0.3567 0.8634 -0.3567
vn 0.5405 -0.1933 0.8188
vn 0.5405 -0.1933 -0.8188
vn -0.8188 -0.1933 0.5405
vn -0.8188 -0.1933 -0.5405
vn 0.5773 0.5773 -0.5773
vn 0.9045 -0.3015 -0.3015
vn 0.9045 -0.3015 0.3015
vn 0.5773 -0.5773 0.5773
vn 0.5773 -0.5773 -0.5773
vn 0.5773 0.5773 0.5773
vn -0.5773 -0.5773 -0.5773
vn -0.5773 -0.5773 0.5773
vn -0.3015 -0.3015 0.9045
vn 0.3015 0.9045 -0.3015
vn -0.3015 0.9045 -0.3015
vn -0.5773 0.5773 0.5773
vn 0.3015 -0.3015 0.9045
vn 0.3015 0.9045 0.3015
vn 0.3015 -0.3015 -0.9045
vn -0.9045 -0.3015 -0.3015
vn -0.9045 -0.3015 0.3015
vn -0.5773 0.5773 -0.5773
vn -0.3015 0.9045 0.3015
vn -0.3015 -0.3015 -0.9045
usemtl color_3888547
s 1
f 9//7 10//8 11//9
f 12//10 13//11 14//12
f 15//13 16//14 17//15
f 18//16 15//13 17//15
f 18//16 17//15 19//17
f 20//18 16//14 15//13
f 20//18 15//13 18//16
f 16//14 21//19 17//15
f 22//20 20//18 19//17
f 10//8 23//21 11//9
f 21//19 9//7 11//9
f 21//19 11//9 17//15
f 19//17 14//12 13//11
f 19//17 13//11 22//20
f 14//12 24//22 12//10
f 20//18 18//16 19//17
f 14//12 11//9 23//21
f 14//12 23//21 24//22
f 10//8 12//10 24//22
f 10//8 24//22 23//21
f 16//14 10//8 9//7
f 16//14 9//7 21//19
f 13//11 12//10 20//18
f 13//11 20//18 22//20
usemtl color_15277357
f 25//23 26//24 27//25
f 28//26 29//27 27//25
f 29//27 25//23 27//25
f 30//27 26//24 31//26
f 32//28 31//26 26//24
f 32//28 26//24 25//23
f 33//29 26//24 30//27
f 33//29 30//27 34//29
f 33//29 34//29 35//30
f 33//29 35//30 36//31
f 37//32 38//27 39//26
f 40//33 33//29 37//32
f 41//26 42//30 43//29
f 41//26 43//29 44//27
f 37//32 45//34 32//28
f 46//26 47//30 48//29
f 46//26 48//29 49//27
f 36//31 50//35 38//27
f 36//31 38//27 33//29
f 51//36 37//32 39//26
f 46//26 50//35 47//30
f 45//34 47//30 50//35
f 36//31 32//28 50//35
f 45//34 50//35 32//28
f 44//27 52//37 39//26
f 44//27 39//26 41//26
f 38//27 53//38 39//26
f 53//38 54//39 39//26
f 39//26 54//39 42//30
f 39//26 42//30 41//26
f 50//35 46//26 49//27
f 50//35 49//27 38//27
f 44//27 43//29 52//37
f 55//40 52//37 43//29
f 55//40 54//39 53//38
f 55//40 53//38 45//34
f 55//40 51//36 56//41
f 53//38 38//27 49//27
f 53//38 49//27 48//29
f 42//30 54//39 43//29
f 55//40 43//29 54//39
f 57//30 39//26 52//37
f 57//30 52//37 58//42
f 20//18 12//10 10//8
f 20//18 10//8 16//14
f 48//29 47//30 53//38
f 45//34 53//38 47//30
f 51//36 39//26 57//30
f 51//36 57//30 56//41
f 45//34 37//32 55//40
f 37//32 51//36 55//40
f 55//40 58//42 52//37
f 17//15 11//9 14//12
f 17//15 14//12 19//17
f 40//33 37//32 32//28
f 25//23 56//41 40//33
f 25//23 55//40 56//41
f 25//23 40//33 32//28
f 40//33 56//41 57//30
f 28//26 59//30 60//29
f 28//26 60//29 29//27
f 31//26 35//30 34//29
f 31//26 34//29 30//27
f 57//30 33//29 40//33
f 35//30 31//26 36//31
f 31//26 32//28 36//31
f 37//32 33//29 38//27
f 58//42 60//29 59//30
f 58//42 59//30 57//30
f 33//29 57//30 26//24
f 27//25 26//24 57//30
f 27//25 57//30 59//30
f 27//25 59//30 28//26
f 60//29 58//42 29//27
f 25//23 29//27 58//42
f 25//23 58//42 55//40
